<svg version="1.1" id="Layer_1" xmlns="http://www.w3.org/2000/svg" xmlns:xlink="http://www.w3.org/1999/xlink" x="0px" y="0px"
	 width="100%" viewBox="0 0 127 62" enable-background="new 0 0 127 62" xml:space="preserve">
<path fill="#010002" opacity="1.000000" stroke="none" 
	d="
M84.000000,63.000000 
	C56.000004,63.000000 28.500010,63.000000 1.000011,63.000000 
	C1.000007,42.333344 1.000007,21.666683 1.000004,1.000019 
	C43.333317,1.000013 85.666634,1.000013 127.999969,1.000006 
	C127.999977,21.666647 127.999977,42.333294 127.999985,62.999969 
	C113.500000,63.000000 99.000000,63.000000 84.000000,63.000000 
M71.637360,20.170231 
	C71.457275,20.416767 71.474831,20.648302 71.561722,21.578472 
	C71.636414,22.052151 71.711105,22.525829 71.550812,23.737988 
	C71.612633,24.501486 71.674446,25.264984 71.495735,26.933619 
	C71.580070,32.997917 71.664413,39.062214 71.628571,45.423027 
	C71.657745,45.668560 71.793297,45.817120 72.385361,46.490849 
	C77.468056,48.779530 81.564278,48.053768 81.651550,44.495102 
	C81.852493,36.300938 81.404015,28.090845 81.156448,19.421558 
	C81.020027,19.119053 80.796806,18.908627 79.997398,18.252089 
	C77.065018,17.610296 73.993889,16.297138 71.975395,19.954128 
	C71.975395,19.954128 71.939209,19.939392 71.637360,20.170231 
M101.680717,24.457960 
	C101.159531,24.234961 100.638344,24.011959 99.692490,23.271244 
	C97.900581,22.195053 96.212296,20.844299 94.288284,20.118143 
	C92.273033,19.357553 90.031448,19.196699 87.228111,19.294523 
	C87.138718,21.529236 87.049316,23.763947 86.764336,26.817556 
	C86.823601,28.212408 86.882874,29.607260 86.754951,31.919348 
	C86.766197,35.725353 86.505203,39.562515 86.935287,43.320587 
	C87.087318,44.648949 88.926369,45.784241 90.612106,46.967777 
	C90.807884,46.653576 91.003654,46.339375 91.058304,46.189827 
	C91.058304,46.189827 91.213455,46.341339 91.941132,46.299995 
	C97.744553,43.077866 103.603203,39.949203 109.315811,36.573402 
	C110.911400,35.630508 112.075920,33.958138 113.438187,32.620403 
	C111.895432,31.310225 110.352676,30.000046 108.329346,28.151548 
	C106.227455,27.075121 104.125557,25.998693 101.680717,24.457960 
M56.077744,17.650417 
	C54.074326,17.717825 52.070908,17.785231 49.317600,17.645746 
	C45.887768,18.099241 42.457932,18.552736 38.564484,19.489891 
	C41.093502,24.996361 43.622524,30.502829 46.260902,36.700600 
	C48.253193,40.321960 50.245480,43.943325 53.001862,48.953564 
	C56.885090,41.579571 59.932953,35.791885 63.374947,29.628180 
	C63.620995,28.964581 63.867043,28.300983 64.742668,27.027864 
	C64.932983,26.204365 65.123299,25.380863 65.734467,24.800167 
	C65.734467,24.800167 66.028313,24.413216 66.539635,23.984711 
	C69.343803,18.662750 68.794167,17.683685 62.864746,17.631567 
	C60.883320,17.614149 58.900387,17.768402 56.077744,17.650417 
M18.036575,37.581123 
	C16.753365,40.599911 15.470154,43.618698 13.750366,47.664543 
	C24.487509,47.664543 33.582355,47.757828 42.666603,47.490730 
	C43.408257,47.468925 45.024307,44.531151 44.633263,43.720688 
	C40.953445,36.094025 37.062515,28.558825 32.934574,21.163536 
	C31.103228,17.882645 28.657598,18.207333 26.767712,21.622507 
	C23.952778,26.709318 21.178402,31.818573 18.036575,37.581123 
z"/>
<path fill="#6E1ABD" opacity="1.000000" stroke="none" 
	d="
M18.211670,37.249702 
	C21.178402,31.818573 23.952778,26.709318 26.767712,21.622507 
	C28.657598,18.207333 31.103228,17.882645 32.934574,21.163536 
	C37.062515,28.558825 40.953445,36.094025 44.633263,43.720688 
	C45.024307,44.531151 43.408257,47.468925 42.666603,47.490730 
	C33.582355,47.757828 24.487509,47.664543 13.750366,47.664543 
	C15.470154,43.618698 16.753365,40.599911 18.211670,37.249702 
z"/>
<path fill="#7319C2" opacity="1.000000" stroke="none" 
	d="
M66.028313,24.413216 
	C66.028313,24.413216 65.734467,24.800167 65.388519,25.066912 
	C64.732750,26.101566 64.422920,26.869476 64.113091,27.637384 
	C63.867043,28.300983 63.620995,28.964581 62.806435,29.902943 
	C56.875797,32.121571 51.513672,34.065434 46.151546,36.009300 
	C43.622524,30.502829 41.093502,24.996361 39.245773,19.247505 
	C43.307205,18.620958 46.687347,18.236797 50.067490,17.852636 
	C52.070908,17.785231 54.074326,17.717825 56.839123,17.930716 
	C61.701614,18.523006 64.142067,21.091574 66.028313,24.413216 
z"/>
<path fill="#7517C3" opacity="1.000000" stroke="none" 
	d="
M86.942139,31.002111 
	C86.882874,29.607260 86.823601,28.212408 87.119812,26.269810 
	C87.982658,25.147615 88.490044,24.573168 89.335892,24.096016 
	C93.115028,25.795315 96.555695,27.397314 100.330978,28.999479 
	C101.111725,28.999340 101.557846,28.999037 102.485443,28.996632 
	C104.914589,28.892975 106.862251,28.791422 108.809914,28.689869 
	C110.352676,30.000046 111.895432,31.310225 113.438187,32.620407 
	C112.075920,33.958138 110.911400,35.630508 109.315811,36.573402 
	C103.603203,39.949203 97.744553,43.077866 91.560349,45.889446 
	C91.336006,44.002834 91.160820,42.388840 91.707268,41.074982 
	C93.881775,35.846714 91.719948,32.848598 86.942139,31.002111 
z"/>
<path fill="#7319C0" opacity="1.000000" stroke="none" 
	d="
M71.748756,45.126511 
	C71.664413,39.062214 71.580070,32.997917 71.980103,26.463436 
	C76.822594,26.022425 79.930519,24.259109 81.219055,19.887215 
	C81.404015,28.090845 81.852493,36.300938 81.651550,44.495102 
	C81.564278,48.053768 77.468056,48.779530 72.198524,46.044037 
	C71.969978,45.414658 71.882332,45.257751 71.748756,45.126511 
z"/>
<path fill="#7618C8" opacity="1.000000" stroke="none" 
	d="
M46.206223,36.354950 
	C51.513672,34.065434 56.875797,32.121571 62.609367,30.090954 
	C59.932953,35.791885 56.885090,41.579571 53.001862,48.953564 
	C50.245480,43.943325 48.253193,40.321960 46.206223,36.354950 
z"/>
<path fill="#7317C3" opacity="1.000000" stroke="none" 
	d="
M99.996361,28.999313 
	C96.555695,27.397314 93.115028,25.795315 89.314964,23.712032 
	C88.599976,21.745071 88.244385,20.259392 87.888786,18.773712 
	C90.031448,19.196699 92.273033,19.357553 94.288284,20.118143 
	C96.212296,20.844299 97.900581,22.195053 99.797684,23.843632 
	C99.934036,25.943783 99.965195,27.471548 99.996361,28.999313 
z"/>
<path fill="#7216BF" opacity="1.000000" stroke="none" 
	d="
M86.848541,31.460730 
	C91.719948,32.848598 93.881775,35.846714 91.707268,41.074982 
	C91.160820,42.388840 91.336006,44.002834 91.196503,45.910118 
	C91.213455,46.341339 91.058304,46.189827 90.946609,46.288521 
	C90.555008,46.594040 90.275108,46.800861 89.995209,47.007683 
	C88.926369,45.784241 87.087318,44.648949 86.935287,43.320587 
	C86.505203,39.562515 86.766197,35.725353 86.848541,31.460730 
z"/>
<path fill="#7117BA" opacity="1.000000" stroke="none" 
	d="
M81.187752,19.654387 
	C79.930519,24.259109 76.822594,26.022425 72.100365,26.010868 
	C71.674446,25.264984 71.612633,24.501486 71.890686,23.284996 
	C72.493423,21.871288 72.756287,20.910572 73.401184,19.804335 
	C76.017746,19.369301 78.252266,19.079788 80.486794,18.790277 
	C80.796806,18.908627 81.020027,19.119053 81.187752,19.654387 
z"/>
<path fill="#6B1AB5" opacity="1.000000" stroke="none" 
	d="
M66.283974,24.198963 
	C64.142067,21.091574 61.701614,18.523006 57.259323,18.027597 
	C58.900387,17.768402 60.883320,17.614149 62.864746,17.631567 
	C68.794167,17.683685 69.343803,18.662750 66.283974,24.198963 
z"/>
<path fill="#6B1AB5" opacity="1.000000" stroke="none" 
	d="
M49.692543,17.749191 
	C46.687347,18.236797 43.307205,18.620958 39.477581,19.005674 
	C42.457932,18.552736 45.887768,18.099241 49.692543,17.749191 
z"/>
<path fill="#7317C3" opacity="1.000000" stroke="none" 
	d="
M108.569626,28.420708 
	C106.862251,28.791422 104.914589,28.892975 102.485886,28.589012 
	C102.011116,27.096420 102.017387,26.009344 102.023666,24.922266 
	C104.125557,25.998693 106.227455,27.075121 108.569626,28.420708 
z"/>
<path fill="#6415A8" opacity="1.000000" stroke="none" 
	d="
M80.242096,18.521183 
	C78.252266,19.079788 76.017746,19.369301 73.131744,19.798897 
	C72.300926,19.931610 72.121590,19.924240 71.942253,19.916870 
	C73.993889,16.297138 77.065018,17.610296 80.242096,18.521183 
z"/>
<path fill="#7216BF" opacity="1.000000" stroke="none" 
	d="
M87.558449,19.034119 
	C88.244385,20.259392 88.599976,21.745071 88.976501,23.614735 
	C88.490044,24.573168 87.982658,25.147615 87.217598,25.860361 
	C87.049316,23.763947 87.138718,21.529236 87.558449,19.034119 
z"/>
<path fill="#7216BF" opacity="1.000000" stroke="none" 
	d="
M101.852188,24.690113 
	C102.017387,26.009344 102.011116,27.096420 102.004402,28.591116 
	C101.557846,28.999037 101.111725,28.999340 100.330978,28.999477 
	C99.965195,27.471548 99.934036,25.943783 100.010017,24.102489 
	C100.638344,24.011959 101.159531,24.234961 101.852188,24.690113 
z"/>
<path fill="#7319C0" opacity="1.000000" stroke="none" 
	d="
M71.958824,19.935499 
	C72.121590,19.924240 72.300926,19.931610 72.749710,19.944420 
	C72.756287,20.910572 72.493423,21.871288 72.008179,22.915756 
	C71.711105,22.525829 71.636414,22.052151 71.709686,21.081667 
	C71.945305,20.377357 71.972488,20.162201 71.939209,19.939392 
	C71.939209,19.939392 71.975395,19.954128 71.958824,19.935499 
z"/>
<path fill="#6B1AB5" opacity="1.000000" stroke="none" 
	d="
M64.427879,27.332624 
	C64.422920,26.869476 64.732750,26.101566 65.178093,24.945509 
	C65.123299,25.380863 64.932983,26.204365 64.427879,27.332624 
z"/>
<path fill="#7517C3" opacity="1.000000" stroke="none" 
	d="
M90.303658,46.987728 
	C90.275108,46.800861 90.555008,46.594040 91.017166,46.206196 
	C91.003654,46.339375 90.807884,46.653576 90.303658,46.987728 
z"/>
<path fill="#6415A8" opacity="1.000000" stroke="none" 
	d="
M71.688660,45.274769 
	C71.882332,45.257751 71.969978,45.414658 72.023453,45.732971 
	C71.793297,45.817120 71.657745,45.668560 71.688660,45.274769 
z"/>
<path fill="#6415A8" opacity="1.000000" stroke="none" 
	d="
M71.788284,20.054811 
	C71.972488,20.162201 71.945305,20.377357 71.773849,20.724846 
	C71.474831,20.648302 71.457275,20.416767 71.788284,20.054811 
z"/>
</svg>