<svg xmlns="http://www.w3.org/2000/svg" width="128" height="36" viewBox="0 0 100 28" role="img">
  <g fill="#A7AFBE" opacity="0.88">
  <path d="M 93 10 L 92 11 L 90 11 L 88 14 L 88 17 L 91 20 L 95 20 L 97 18 L 97 13 Z"/>
  <path d="M 69 12 L 68 14 L 69 18 L 71 20 L 75 20 L 76 18 L 75 19 L 71 19 L 70 18 L 70 16 L 71 15 L 72 16 L 73 15 L 77 15 L 77 13 L 75 11 L 71 11 Z"/>
  <path d="M 43 11 L 42 12 L 46 11 L 48 14 L 47 15 L 42 15 L 41 16 L 41 18 L 43 20 L 46 20 L 47 19 L 49 20 L 49 13 L 47 11 Z"/>
  <path d="M 52 11 L 52 20 L 53 20 L 53 13 L 56 11 L 58 13 L 58 19 L 59 20 L 59 14 L 62 11 L 65 13 L 65 20 L 66 20 L 66 13 L 65 11 L 60 11 L 59 12 L 56 10 L 55 11 Z"/>
  <path d="M 2 2 L 3 10 L 4 11 L 4 17 L 3 18 L 2 25 L 4 22 L 4 19 L 5 18 L 5 10 Z"/>
  <path d="M 7 6 L 9 11 L 9 16 L 7 21 L 8 21 L 10 17 L 10 10 L 9 9 L 9 7 Z"/>
  <path d="M 13 9 L 13 12 L 14 13 L 13 14 L 13 19 L 14 19 L 15 17 L 15 10 Z"/>
  <path d="M 40 11 L 35 11 L 35 20 L 36 19 L 36 13 Z"/>
  <path d="M 32 7 L 30 7 L 27 11 L 29 13 L 29 20 L 29 13 L 32 11 L 30 10 L 30 8 L 31 7 L 32 8 Z"/>
  <path d="M 84 11 L 84 19 L 85 20 L 85 11 Z"/>
  <path d="M 20 13 L 18 13 L 18 15 L 19 15 Z"/>
  <path d="M 84 7 L 84 8 L 86 8 L 86 7 Z"/>
  <path d="M 80 19 L 80 20 L 81 20 L 81 19 Z"/>
  </g>
</svg>
