<svg xmlns="http://www.w3.org/2000/svg" width="2048" height="1024" viewBox="0 0 2048 1024" role="img" aria-label="AVID purple logo">
  <defs>
    <linearGradient id="avidFill" x1="0" y1="0" x2="2048" y2="0" gradientUnits="userSpaceOnUse">
      <stop offset="0%" stop-color="#7C1FE8"/>
      <stop offset="48%" stop-color="#8C22E8"/>
      <stop offset="100%" stop-color="#9F27F3"/>
    </linearGradient>

    <filter id="softShadow" x="-20%" y="-20%" width="140%" height="140%">
      <feDropShadow dx="0" dy="10" stdDeviation="16" flood-color="#000000" flood-opacity="0.28"/>
    </filter>
  </defs>

  <rect width="2048" height="1024" fill="#050505"/>

  <g fill="url(#avidFill)" filter="url(#softShadow)">
    <!-- A -->
    <path d="
      M 281 711
      L 489 303
      C 507 268 557 268 575 303
      L 783 711
      C 800 744 776 783 739 783
      L 325 783
      C 288 783 264 744 281 711
      Z
    "/>

    <!-- V -->
    <path d="
      M 659 304
      C 642 270 666 232 704 232
      L 1139 232
      C 1177 232 1201 270 1184 304
      L 964 716
      C 946 750 897 750 879 716
      Z
    "/>

    <!-- I -->
    <rect x="1243" y="232" width="155" height="551" rx="42" ry="42"/>

    <!-- D / play mark -->
    <path d="
      M 1509 285
      C 1509 245 1553 220 1588 241
      L 1904 428
      C 1940 449 1940 501 1904 522
      L 1588 709
      C 1553 730 1509 705 1509 665
      Z
    "/>
  </g>
</svg>
